<svg xmlns="http://www.w3.org/2000/svg" width="96" height="96"><circle cx="48" cy="48" r="46" fill="#fff"/><path d="M16.01 61.932a35.452 35.452 0 0 1 23.585-49.776l-4.12 8.693A28.649 28.649 0 0 0 20.168 53.22zm53.632 12.756a35.339 35.339 0 0 1-43.276 0l7.484-3.156c4.176 2.381 8.995 3.723 14.154 3.723 5.14 0 9.96-1.342 14.136-3.723zM56.414 12.156a35.47 35.47 0 0 1 23.584 49.776l-4.139-8.693a28.649 28.649 0 0 0-15.307-32.39l-4.157-8.693z" fill="#164a72"/><path d="M48.004 62.877l16.932 7.143-4.29-8.995-12.66-5.348-12.643 5.348-4.252 8.995M48.004 3.33L12.741 77.768l9.165-3.874 4.252-8.976L39.595 36.57l8.41-17.745 11.791 24.889L69.85 64.918l4.252 8.976 9.165 3.874z" fill="#00aeef"/><path d="M56.395 51.69l-8.372-17.745-8.41 17.744 8.41-3.533z" fill="#00aeef"/></svg>